{"title":"Elephant White 2011 WORKPRINT XViD AC3 SAFCuk009","uid":6199655,"size":1148416584,"categoryP":"video","categoryS":"movies","magnet":"?xt=urn:btih:a1c5d422df1ff60c005a73d17ed3239ed60c0f55&amp;dn=Elephant+White+2011+WORKPRINT+XViD+AC3+SAFCuk009&amp;tr=udp%3A%2F%2Ftracker.openbittorrent.com%3A80&amp;tr=udp%3A%2F%2Fopen.demonii.com%3A1337&amp;tr=udp%3A%2F%2Ftracker.coppersurfer.tk%3A6969&amp;tr=udp%3A%2F%2Fexodus.desync.com%3A6969","seeders":0,"leechers":1,"uploader":"SAFCukO09","files":3,"time":1298569484,"description":"Format : AVI\nFormat/Info : Audio Video Interleave\nFile size : 1.07 GiB\nDuration : 1h 31mn\nOverall bit rate : 1 675 Kbps\nWriting library : VirtualDub build 32839/release\n\nVideo\nID : 0\nFormat : MPEG-4 Visual\nFormat profile : Advanced Simple@L5\nFormat settings, BVOP : Yes\nFormat settings, QPel : No\nFormat settings, GMC : No warppoints\nFormat settings, Matrix : Custom\nCodec ID : XVID\nCodec ID/Hint : XviD\nDuration : 1h 31mn\nBit rate : 1 474 Kbps\nWidth : 720 pixels\nHeight : 304 pixels\nDisplay aspect ratio : 2.35:1\nFrame rate : 23.976 fps\nColor space : YUV\nChroma subsampling : 4:2:0\nBit depth : 8 bits\nScan type : Progressive\nBits/(Pixel*Frame) : 0.281\nStream size : 964 MiB (88%)\nWriting library : XviD 1.2.1 (UTC 2008-12-04)\n\nAudio\nID : 1\nFormat : AC-3\nFormat/Info : Audio Coding 3\nMode extension : CM (complete main)\nCodec ID : 2000\nDuration : 1h 31mn\nBit rate mode : Constant\nBit rate : 192 Kbps\nChannel(s) : 2 channels\nChannel positions : Front: L R\nSampling rate : 48.0 KHz\nBit depth : 16 bits\nStream size : 126 MiB (11%)\nAlignment : Aligned on interleaves\nInterleave, duration : 42 ms (1.00 video frame)\nInterleave, preload duration : 512 ms\n\n\n\n &lt;a href=&quot;\nhttp://www.imdb.com/title/tt1578882/&quot; rel=&quot;nofollow&quot; target=&quot;_NEW&quot;&gt;\nhttp://www.imdb.com/title/tt1578882/&lt;/a&gt;\n\n\n\n\n89524873606771859129.png\n\n\n(awaiting 5 votes) write review\n\nA mercenary in Thailand is engaged by a 14 year old girl who gives his life a new meaning.\nDirector:\nPrachya Pinkaew\nWriter:\nKevin Bernhardt\nStars:\nKevin Bacon, Djimon Hounsou and Ron Smoorenburg\n\n","torrent":{"xt":"urn:btih:a1c5d422df1ff60c005a73d17ed3239ed60c0f55","amp;dn":"Elephant+White+2011+WORKPRINT+XViD+AC3+SAFCuk009","amp;tr":["udp%3A%2F%2Ftracker.openbittorrent.com%3A80","udp%3A%2F%2Fopen.demonii.com%3A1337","udp%3A%2F%2Ftracker.coppersurfer.tk%3A6969","udp%3A%2F%2Fexodus.desync.com%3A6969"],"infoHash":"a1c5d422df1ff60c005a73d17ed3239ed60c0f55","infoHashBuffer":{"type":"Buffer","data":[161,197,212,34,223,31,246,12,0,90,115,209,126,211,35,158,214,12,15,85]},"announce":[],"urlList":[]}}